<mxfile host="app.diagrams.net" modified="2024-07-07T18:07:49.302Z" agent="Mozilla/5.0 (Windows NT 10.0; Win64; x64) AppleWebKit/537.36 (KHTML, like Gecko) Chrome/126.0.0.0 Safari/537.36" version="24.6.4" etag="NX8utwRatz-OBj4-IiOM" type="github">
  <diagram name="第 1 页" id="REUcJ3NfYIPqP3X7uyRf">
    <mxGraphModel>
      <root>
        <mxCell id="0" />
        <mxCell id="1" parent="0" />
      </root>
    </mxGraphModel>
  </diagram>
</mxfile>
